<svg xmlns="http://www.w3.org/2000/svg" viewBox="5 -1 38 40" fill="none">
  <path fill="#047857" d="m41.59,37.54h-10.24c-.58,0-1.05-.47-1.05-1.05v-3.61c0-.25.09-.49.25-.68.03-.03.06-.06.09-.09.1-.1.21-.19.31-.29,1.79-1.79,2.78-4.18,2.78-6.71,0-.49-.04-.97-.11-1.44-.3-1.99-1.22-3.82-2.67-5.27-.1-.1-.2-.2-.31-.29-.11-.1-.19-.22-.25-.35-.06-.13-.09-.27-.09-.42,0-.08,0-.16.03-.24l.99-4.24.71-3.02c.15-.66-.35-1.29-1.02-1.29h-10.27c-.27,0-.52.1-.71.28-.15.14-.27.33-.31.54l-1.69,7.34c-.02.08-.03.16-.03.24v.55c0,.29-.12.56-.32.76-.05.05-.11.1-.16.15-1.79,1.79-2.78,4.18-2.78,6.71,0,.71.08,1.4.23,2.07.39,1.74,1.26,3.35,2.55,4.64.05.05.1.1.16.15.21.2.32.47.32.76v3.76c0,.58-.47,1.05-1.05,1.05H6.93c-.69,0-1.19-.65-1.02-1.32l2.28-8.82,2.61-10.1,2.01-7.77L15.01,1.04c.12-.46.54-.79,1.02-.79h19.03c.51,0,.94.36,1.03.86l2.73,14.71,1.72,9.26,1.5,8.05.59,3.16c.12.65-.38,1.24-1.03,1.24Z" />
  <path fill="#d92b2b" d="m18,20.45v9.31c0,.28-.36.39-.52.17-.97-1.36-1.54-3.02-1.54-4.82s.57-3.46,1.54-4.82c.16-.23.52-.11.52.17Z" />
  <path fill="#d92b2b" d="m22.36,17.02c.28-.06.57-.11.86-.15v16.47c-.29-.04-.58-.09-.86-.15-.13-.03-.22-.15-.22-.28v-15.61c0-.13.09-.25.22-.28Z" />
  <path fill="#d92b2b" d="m24.23,16.81c.17,0,.34,0,.51.02v16.56c-.17.01-.34.02-.51.02-.21,0-.41,0-.62-.02v-16.54c.2-.02.41-.02.62-.02Z" />
  <path fill="#d92b2b" d="m26.16,17.27v15.68c0,.14-.09.25-.23.28-.26.05-.53.1-.8.13v-16.49c.27.03.54.07.8.13.13.03.23.15.23.28Z" />
  <path fill="#d92b2b" d="m32.52,25.11c0,1.9-.64,3.65-1.71,5.04-.17.22-.52.1-.52-.17v-9.74c0-.27.35-.39.52-.17,1.07,1.4,1.71,3.15,1.71,5.04Z" />
</svg>
